HIERARCHY
ROOT Hips
{
    OFFSET   0.000000   0.000000   0.000000
    CHANNELS 6 Xposition Yposition Zposition Zrotation Xrotation Yrotation
    JOINT Chest
    {
        OFFSET   0.000000   8.007230   0.000000
        CHANNELS 3 Zrotation Xrotation Yrotation
        JOINT Chest2
        {
            OFFSET   0.000000  22.077100   0.000000
            CHANNELS 3 Zrotation Xrotation Yrotation
            JOINT Neck
            {
                OFFSET   0.000000  23.255100   0.000000
                CHANNELS 3 Zrotation Xrotation Yrotation
                JOINT Head
                {
                    OFFSET   0.000000  14.370100   1.956600
                    CHANNELS 3 Zrotation Xrotation Yrotation
                    End Site
                    {
                        OFFSET   0.000000  19.566000   0.000000
                    }
                }
            }
            JOINT LeftCollar
            {
                OFFSET   3.911900  19.017000  -0.467063
                CHANNELS 3 Zrotation Xrotation Yrotation
                JOINT LeftShoulder
                {
                    OFFSET  10.383700   0.000000   0.000000
                    CHANNELS 3 Zrotation Xrotation Yrotation
                    JOINT LeftElbow
                    {
                        OFFSET  26.662100   0.001193   0.000980
                        CHANNELS 3 Zrotation Xrotation Yrotation
                        JOINT LeftWrist
                        {
                            OFFSET  28.869000  -0.000059  -0.000082
                            CHANNELS 3 Zrotation Xrotation Yrotation
                            JOINT LeftFinger0
                            {
                                OFFSET   2.044650  -2.323450   3.252850
                                CHANNELS 3 Zrotation Xrotation Yrotation
                                JOINT LeftFinger01
                                {
                                    OFFSET   3.088130   0.000000   0.000000
                                    CHANNELS 3 Zrotation Xrotation Yrotation
                                    JOINT LeftFinger02
                                    {
                                        OFFSET   2.639460   0.000000   0.000000
                                        CHANNELS 3 Zrotation Xrotation Yrotation
                                        End Site
                                        {
                                            OFFSET   2.582190   0.000000   0.000000
                                        }
                                    }
                                }
                            }
                            JOINT LeftFinger1
                            {
                                OFFSET   8.364480   0.000000   3.252850
                                CHANNELS 3 Zrotation Xrotation Yrotation
                                JOINT LeftFinger11
                                {
                                    OFFSET   4.646930   0.000000   0.000000
                                    CHANNELS 3 Zrotation Xrotation Yrotation
                                    JOINT LeftFinger12
                                    {
                                        OFFSET   2.323470   0.000000   0.000000
                                        CHANNELS 3 Zrotation Xrotation Yrotation
                                        End Site
                                        {
                                            OFFSET   2.273050   0.000000   0.000000
                                        }
                                    }
                                }
                            }
                            JOINT LeftFinger2
                            {
                                OFFSET   8.364490   0.000016   1.078090
                                CHANNELS 3 Zrotation Xrotation Yrotation
                                JOINT LeftFinger21
                                {
                                    OFFSET   5.111610   0.000000   0.000000
                                    CHANNELS 3 Zrotation Xrotation Yrotation
                                    JOINT LeftFinger22
                                    {
                                        OFFSET   2.788150   0.000016   0.000000
                                        CHANNELS 3 Zrotation Xrotation Yrotation
                                        End Site
                                        {
                                            OFFSET   2.727660   0.000000   0.000000
                                        }
                                    }
                                }
                            }
                            JOINT LeftFinger3
                            {
                                OFFSET   7.899780   0.000015  -1.078090
                                CHANNELS 3 Zrotation Xrotation Yrotation
                                JOINT LeftFinger31
                                {
                                    OFFSET   4.646930   0.000000   0.000000
                                    CHANNELS 3 Zrotation Xrotation Yrotation
                                    JOINT LeftFinger32
                                    {
                                        OFFSET   2.323470   0.000000   0.000000
                                        CHANNELS 3 Zrotation Xrotation Yrotation
                                        End Site
                                        {
                                            OFFSET   2.273050   0.000000   0.000000
                                        }
                                    }
                                }
                            }
                            JOINT LeftFinger4
                            {
                                OFFSET   7.435090   0.000000  -3.252850
                                CHANNELS 3 Zrotation Xrotation Yrotation
                                JOINT LeftFinger41
                                {
                                    OFFSET   3.717550   0.000000   0.000000
                                    CHANNELS 3 Zrotation Xrotation Yrotation
                                    JOINT LeftFinger42
                                    {
                                        OFFSET   1.858770   0.000000   0.000000
                                        CHANNELS 3 Zrotation Xrotation Yrotation
                                        End Site
                                        {
                                            OFFSET   1.818440   0.000000   0.000000
                                        }
                                    }
                                }
                            }
                        }
                    }
                }
            }
            JOINT RightCollar
            {
                OFFSET  -3.911910  19.017000  -0.467062
                CHANNELS 3 Zrotation Xrotation Yrotation
                JOINT RightShoulder
                {
                    OFFSET -10.383700   0.000014   0.000000
                    CHANNELS 3 Zrotation Xrotation Yrotation
                    JOINT RightElbow
                    {
                        OFFSET -26.662100   0.001225   0.001091
                        CHANNELS 3 Zrotation Xrotation Yrotation
                        JOINT RightWrist
                        {
                            OFFSET -28.869000  -0.000020  -0.000085
                            CHANNELS 3 Zrotation Xrotation Yrotation
                            JOINT RightFinger0
                            {
                                OFFSET  -2.044650  -2.323490   3.252850
                                CHANNELS 3 Zrotation Xrotation Yrotation
                                JOINT RightFinger01
                                {
                                    OFFSET  -3.088130   0.000000   0.000000
                                    CHANNELS 3 Zrotation Xrotation Yrotation
                                    JOINT RightFinger02
                                    {
                                        OFFSET  -2.639460   0.000000   0.000000
                                        CHANNELS 3 Zrotation Xrotation Yrotation
                                        End Site
                                        {
                                            OFFSET  -2.582190   0.000000   0.000000
                                        }
                                    }
                                }
                            }
                            JOINT RightFinger1
                            {
                                OFFSET  -8.364480   0.000000   3.252850
                                CHANNELS 3 Zrotation Xrotation Yrotation
                                JOINT RightFinger11
                                {
                                    OFFSET  -4.646930   0.000000   0.000000
                                    CHANNELS 3 Zrotation Xrotation Yrotation
                                    JOINT RightFinger12
                                    {
                                        OFFSET  -2.323470   0.000000   0.000000
                                        CHANNELS 3 Zrotation Xrotation Yrotation
                                        End Site
                                        {
                                            OFFSET  -2.273050   0.000000   0.000000
                                        }
                                    }
                                }
                            }
                            JOINT RightFinger2
                            {
                                OFFSET  -8.364480   0.000000   1.078090
                                CHANNELS 3 Zrotation Xrotation Yrotation
                                JOINT RightFinger21
                                {
                                    OFFSET  -5.111620   0.000000   0.000000
                                    CHANNELS 3 Zrotation Xrotation Yrotation
                                    JOINT RightFinger22
                                    {
                                        OFFSET  -2.788160   0.000000   0.000000
                                        CHANNELS 3 Zrotation Xrotation Yrotation
                                        End Site
                                        {
                                            OFFSET  -2.727660   0.000000   0.000000
                                        }
                                    }
                                }
                            }
                            JOINT RightFinger3
                            {
                                OFFSET  -7.899780   0.000000  -1.078090
                                CHANNELS 3 Zrotation Xrotation Yrotation
                                JOINT RightFinger31
                                {
                                    OFFSET  -4.646930   0.000000   0.000000
                                    CHANNELS 3 Zrotation Xrotation Yrotation
                                    JOINT RightFinger32
                                    {
                                        OFFSET  -2.323470   0.000000   0.000000
                                        CHANNELS 3 Zrotation Xrotation Yrotation
                                        End Site
                                        {
                                            OFFSET  -2.273050   0.000000   0.000000
                                        }
                                    }
                                }
                            }
                            JOINT RightFinger4
                            {
                                OFFSET  -7.435090   0.000000  -3.252850
                                CHANNELS 3 Zrotation Xrotation Yrotation
                                JOINT RightFinger41
                                {
                                    OFFSET  -3.717550   0.000000   0.000000
                                    CHANNELS 3 Zrotation Xrotation Yrotation
                                    JOINT RightFinger42
                                    {
                                        OFFSET  -1.858760   0.000000   0.000000
                                        CHANNELS 3 Zrotation Xrotation Yrotation
                                        End Site
                                        {
                                            OFFSET  -1.818440   0.000000   0.000000
                                        }
                                    }
                                }
                            }
                        }
                    }
                }
            }
        }
    }
    JOINT LeftHip
    {
        OFFSET   9.783030   0.000000   0.000000
        CHANNELS 3 Zrotation Xrotation Yrotation
        JOINT LeftKnee
        {
            OFFSET   0.000063 -41.789100   0.000608
            CHANNELS 3 Zrotation Xrotation Yrotation
            JOINT LeftAnkle
            {
                OFFSET   0.000048 -41.133200  -0.000184
                CHANNELS 3 Zrotation Xrotation Yrotation
                JOINT LeftToe
                {
                    OFFSET   0.000000  -6.358960  14.674500
                    CHANNELS 3 Zrotation Xrotation Yrotation
                    End Site
                    {
                        OFFSET   0.000000   0.000000   3.913200
                    }
                }
            }
        }
    }
    JOINT RightHip
    {
        OFFSET  -9.783030   0.000000   0.000000
        CHANNELS 3 Zrotation Xrotation Yrotation
        JOINT RightKnee
        {
            OFFSET   0.000071 -41.789100   0.001239
            CHANNELS 3 Zrotation Xrotation Yrotation
            JOINT RightAnkle
            {
                OFFSET   0.000037 -41.133200  -0.000166
                CHANNELS 3 Zrotation Xrotation Yrotation
                JOINT RightToe
                {
                    OFFSET   0.000000  -6.358960  14.674500
                    CHANNELS 3 Zrotation Xrotation Yrotation
                    End Site
                    {
                        OFFSET   0.000000   0.000000   3.913200
                    }
                }
            }
        }
    }
}
MOTION
Frames: 4
Frame Time:   0.016667
 -0.514099  89.914900   2.073450  -2.608570 -13.678800  -7.642230   0.066583   7.934510  -1.958550   0.416120  15.862000  -3.984710   4.195130   8.991060  -0.656640   7.379330  17.936000  16.878100   1.378510  -3.980050   7.884050 -36.432900 -19.313400 -58.999800  -7.297570 -24.513100 -82.733000 -62.699300 -44.867300 -29.346100  66.368700  48.521100 -96.448300 -19.990800   0.024903   0.009327  -4.995380   0.018567  -0.058776 -28.586900   3.550790  -6.532470 -23.521500  -0.033101   0.002466 -16.465000  -0.023713   0.007304 -28.796500  -3.870200   6.997690 -43.261000  -0.255738  -0.051055 -28.811900  -0.136478  -0.106472 -27.961400  -4.988720   9.191320 -34.653700  -0.273222  -0.025624 -23.079400  -0.164428  -0.079866 -36.347200  -8.926040  11.749900 -55.848700  -0.244500  -0.160257 -37.195100  -0.071603  -0.179915   1.370100  -3.709530   8.241550  54.254200 -19.092200  54.682700  -7.611070 -28.177500  72.697500  71.612500 -21.075000  52.213600 -70.758100  44.019800  83.407100   8.227170   0.099359  -0.013558  -0.886364   0.051236   0.111757  20.949200   3.138630   7.574060  17.218300  -0.010162   0.006541  12.052800  -0.006487   0.005432  19.504300  -0.353220  -1.316530  19.400900  -0.067809  -0.000967  12.921000  -0.044002   0.007939  24.290700  -3.540860  -7.853940  24.013500  -0.064850   0.005252  15.993000  -0.041021   0.013793  34.700900  -4.845260  -6.959740  52.394000  -0.074757   0.093609  34.894300  -0.002583   0.081779   0.456443  15.189000   5.184780  -0.637820   3.380000  16.647600  -4.175950  -6.296060   5.072690  -0.000000   0.000000   0.000000   3.179870  13.670200  -6.352090  -0.056035   3.913940  -5.040920 -10.825800  -1.218990   6.191530   0.000000   0.000000   0.000000
 -0.513109  89.904500   2.047530  -2.622510 -13.697400  -7.634980   0.071278   7.900040  -1.911790   0.417638  15.793200  -3.889910   4.103710   9.137860  -0.652714   7.229470  18.241800  16.810500   1.458170  -4.059640   7.786410 -36.231700 -19.041200 -59.350200  -4.070790 -24.792600 -80.909300 -51.993800 -40.901200 -19.359000  67.735800  49.555200 -97.496600 -21.875000   0.003146   0.001302  -5.937490   0.006759  -0.046208 -28.413100   3.080270  -5.716130 -23.400700  -0.040288   0.002492 -16.380500  -0.029348   0.007303 -28.372000  -4.012370   7.365810 -41.262900  -0.281717  -0.042458 -27.481200  -0.155056  -0.108603 -27.836200  -5.344530   9.935310 -31.809800  -0.291365   0.005530 -21.185400  -0.183375  -0.062664 -34.798800  -9.130690  12.692500 -53.714000  -0.300605  -0.164060 -35.773400  -0.104477  -0.201639   1.320950  -3.608750   8.228400  54.038400 -18.622500  54.876600  -7.783100 -28.720600  72.367800  66.777300 -24.229000  49.734000 -74.967600  46.131000  84.943700  11.428000   0.077318  -0.015593   0.714058   0.041638   0.114263  20.170500   1.853850   4.799280  16.454600  -0.010269   0.004417  11.518200  -0.006689   0.003315  18.935300  -1.465180  -4.506540  18.857600  -0.071455  -0.005023  12.559100  -0.047178   0.006708  23.394900  -4.455090 -10.191800  23.778500  -0.067386   0.002140  15.836500  -0.042851   0.013156  33.032300  -6.168080  -9.302250  50.251300  -0.134317   0.096354  33.467400  -0.041177   0.102017   0.466632  15.224400   5.183800  -0.629886   3.339750  16.633500  -4.184740  -6.264820   5.073780   0.000000   0.000000   0.000000   3.183300  13.697100  -6.337800  -0.045102   3.887290  -5.103220 -10.824900  -1.206150   6.234520  -0.000000   0.000000  -0.000000
 -0.511816  89.887900   2.006160  -2.629210 -13.710600  -7.629960   0.072983   7.858330  -1.846130   0.410191  15.710200  -3.756270   4.016190   9.208180  -0.644176   7.088270  18.394000  16.693900   1.572380  -4.080500   7.595460 -35.724900 -19.068100 -59.938200  -2.084120 -24.723800 -79.019800 -42.791700 -33.025900 -10.377900  68.156800  50.930400 -99.551300 -23.674900  -0.006108  -0.002456  -6.837440  -0.000785  -0.026452 -28.032400   3.126920  -5.885070 -23.147900  -0.036012   0.002525 -16.203500  -0.026483   0.007306 -28.287000  -4.025950   7.382310 -39.032800  -0.216562  -0.013650 -25.995900  -0.123597  -0.074739 -27.345200  -5.286510  10.144700 -29.388500  -0.235239   0.019736 -19.572800  -0.150970  -0.037223 -32.829200  -8.917040  13.344300 -50.865100  -0.274219  -0.116425 -33.876100  -0.105746  -0.163382   1.255440  -3.515170   8.160860  53.704200 -18.107500  55.272000  -8.967610 -29.370500  71.293400  58.043900 -25.159200  43.386300 -76.154400  47.954000  85.711900  13.860900   0.028345  -0.007089   1.930490   0.016052   0.075688  20.287700   0.937634   2.507900  16.512000  -0.002529   0.003001  11.558300  -0.001845   0.001048  18.177600  -2.178510  -6.707700  18.206500  -0.060938  -0.010217  12.125500  -0.041421   0.000770  22.581900  -4.619700 -11.131400  23.079100  -0.065660  -0.005802  15.370700  -0.042049   0.009190  31.682300  -6.317150 -10.234800  48.350500  -0.129591   0.076190  32.201400  -0.041084   0.089177   0.464580  15.220600   5.189510  -0.620693   3.343230  16.627400  -4.187390  -6.238720   5.071170   0.000000   0.000000   0.000000   3.186890  13.693900  -6.360940  -0.047293   3.899720  -5.130050 -10.824300  -1.206740   6.279240   0.000000   0.000000   0.000000
 -0.507328  89.877100   1.956160  -2.630430 -13.721400  -7.622670   0.071511   7.817320  -1.768160   0.394739  15.628700  -3.597260   3.933200   9.226500  -0.631661   6.939410  18.442200  16.552200   1.682800  -4.088210   7.333290 -35.207800 -19.273800 -60.626800  -0.464940 -24.164600 -77.117700 -36.513000 -23.024100  -3.563020  66.814000  51.747600 -100.970000 -25.120000  -0.008287  -0.003790  -7.560020  -0.004066  -0.007983 -27.656800   3.375350  -6.476550 -22.883400  -0.025055   0.002576 -16.018400  -0.018779   0.007309 -28.242300  -4.027890   7.384670 -37.000600  -0.114759   0.007790 -24.642400  -0.072020  -0.026600 -26.431900  -5.179090  10.230600 -27.393100  -0.142328   0.024871 -18.243900  -0.095450  -0.013074 -30.887700  -8.416190  13.594500 -47.943000  -0.214608  -0.047572 -31.930100  -0.105928  -0.100872   1.187570  -3.429510   8.050580  53.409600 -17.725700  55.748200 -11.078700 -29.392700  69.894700  47.519400 -23.740700  35.133600 -76.030900  48.916100  85.790100  15.639100  -0.007953   0.002172   2.819560  -0.002497   0.024612  20.337000   0.482949   1.262430  16.624500   0.014171   0.002292  11.637100   0.009983  -0.000341  17.500800  -2.597680  -8.230520  17.641400  -0.034110  -0.013560  11.749200  -0.024134  -0.004112  21.864100  -4.642240 -11.314400  22.326700  -0.053577  -0.011534  14.869600  -0.036435   0.005094  30.610200  -6.335980 -10.479400  46.793700  -0.096508   0.040712  31.164600  -0.040435   0.056927   0.459021  15.198700   5.194770  -0.605008   3.366940  16.621900  -4.188810  -6.225760   5.068690   0.000000   0.000000   0.000000   3.187970  13.678800  -6.399590  -0.056465   3.934450  -5.135870 -10.823500  -1.211350   6.312590   0.000000   0.000000   0.000000
